<svg width="66" height="66" viewBox="0 0 66 66" fill="none" xmlns="http://www.w3.org/2000/svg">
<path d="M33.0219 8.63094C19.5491 8.63094 8.62732 19.5573 8.62732 33.0357H17.7009C16.9258 15.0389 46.8644 10.5293 48.1941 33.0357H57.4164C57.4164 19.5573 46.4946 8.63094 33.0219 8.63094Z" fill="white"/>
<path d="M33.0219 57.4404C19.5491 57.4404 8.62732 46.514 8.62732 33.0357H17.7009C16.9258 51.0324 46.8644 55.5421 48.1941 33.0357H57.4164C57.4164 46.514 46.4946 57.4404 33.0219 57.4404Z" fill="white"/>
<rect width="10.6385" height="11.249" rx="2" transform="matrix(0.914778 0.403957 -0.403674 0.914903 41.1328 0)" fill="white"/>
<rect width="10.6385" height="11.249" rx="2" transform="matrix(-0.914778 0.403957 0.403674 0.914903 25.2016 0)" fill="white"/>
<rect width="10.6416" height="11.2458" rx="2" transform="matrix(0.395014 0.918675 -0.918555 0.395293 61.7964 15.1786)" fill="white"/>
<rect width="10.6416" height="11.2458" rx="2" transform="matrix(-0.395014 0.918675 0.918555 0.395293 4.20358 15.1786)" fill="white"/>
<rect width="10.6416" height="11.2458" rx="2" transform="matrix(-0.39197 0.919978 -0.91986 -0.392247 65.9823 41.0182)" fill="white"/>
<rect width="10.6416" height="11.2458" rx="2" transform="matrix(0.39197 0.919978 0.91986 -0.392247 0 41.0182)" fill="white"/>
<rect width="10.6385" height="11.2491" rx="2" transform="matrix(-0.920574 0.390567 -0.390291 -0.920692 50.6443 61.7295)" fill="white"/>
<rect width="10.6385" height="11.2491" rx="2" transform="matrix(0.920574 0.390567 0.390291 -0.920692 15.4697 61.8449)" fill="white"/>
</svg>
