<svg width="12" height="13" viewBox="0 0 12 13" fill="none" xmlns="http://www.w3.org/2000/svg">
<path d="M5.59808 12C5.0458 12 4.59808 11.5523 4.59808 11L4.59808 0H6.59808L6.59808 11C6.59808 11.5523 6.15037 12 5.59808 12V12Z" fill="#808080"/>
<path d="M6.19754 11.6645C5.80104 12.0489 5.16795 12.0392 4.7835 11.6427L0.696117 7.42719C0.311663 7.03068 0.32143 6.3976 0.717932 6.01314V6.01314C1.11443 5.62869 1.74752 5.63845 2.13198 6.03496L6.21936 10.2504C6.60381 10.6469 6.59404 11.28 6.19754 11.6645V11.6645Z" fill="#808080"/>
<rect width="7.93996" height="2" rx="1" transform="matrix(0.696115 -0.71793 -0.71793 -0.696115 5.62976 12.4168)" fill="#808080"/>
</svg>
