<svg width="13" height="12" viewBox="0 0 13 12" fill="none" xmlns="http://www.w3.org/2000/svg">
<path d="M1 6C1 5.44772 1.44772 5 2 5H13V7H2C1.44772 7 1 6.55228 1 6V6Z" fill="#808080"/>
<path d="M1.33553 6.59946C0.951077 6.20296 0.960843 5.56987 1.35735 5.18541L5.57281 1.09803C5.96932 0.71358 6.6024 0.723347 6.98686 1.11985V1.11985C7.37131 1.51635 7.36155 2.14944 6.96504 2.53389L2.74958 6.62127C2.35307 7.00573 1.71998 6.99596 1.33553 6.59946V6.59946Z" fill="#808080"/>
<rect width="7.93996" height="2" rx="1" transform="matrix(0.71793 0.696115 0.696115 -0.71793 0.583191 6.03168)" fill="#808080"/>
</svg>
