<svg width="5" height="7" viewBox="0 0 5 7" fill="none" xmlns="http://www.w3.org/2000/svg">
<path d="M0.426796 0.42678C0.662501 0.191076 1.04465 0.191076 1.28036 0.42678L3.76516 2.91158C4.00086 3.14729 4.00086 3.52944 3.76516 3.76514V3.76514C3.52946 4.00085 3.1473 4.00085 2.9116 3.76514L0.426796 1.28034C0.191092 1.04464 0.191092 0.662485 0.426796 0.42678V0.42678Z" fill="#808080"/>
<path d="M0.426796 6.4268C0.662501 6.6625 1.04465 6.6625 1.28036 6.4268L3.84672 3.86043C4.08242 3.62473 4.08242 3.24258 3.84672 3.00687V3.00687C3.61101 2.77117 3.22886 2.77117 2.99316 3.00687L0.426796 5.57324C0.191092 5.80894 0.191092 6.19109 0.426796 6.4268V6.4268Z" fill="#808080"/>
</svg>
