<svg width="13" height="12" viewBox="0 0 13 12" fill="none" xmlns="http://www.w3.org/2000/svg">
<path d="M12 5.55878C12 6.11106 11.5523 6.55878 11 6.55878L0 6.55878V4.55878L11 4.55878C11.5523 4.55878 12 5.00649 12 5.55878V5.55878Z" fill="#808080"/>
<path d="M11.6645 4.95932C12.0489 5.35582 12.0392 5.98891 11.6427 6.37336L7.42719 10.4607C7.03068 10.8452 6.3976 10.8354 6.01314 10.4389V10.4389C5.62869 10.0424 5.63845 9.40934 6.03496 9.02488L10.2504 4.9375C10.6469 4.55305 11.28 4.56282 11.6645 4.95932V4.95932Z" fill="#808080"/>
<rect width="7.93996" height="2" rx="1" transform="matrix(-0.71793 -0.696115 -0.696115 0.71793 12.4168 5.5271)" fill="#808080"/>
</svg>
