<svg width="203" height="18" viewBox="0 0 203 18" fill="none" xmlns="http://www.w3.org/2000/svg">
<path d="M133 8H134.43C134.472 8 134.509 7.97343 134.524 7.93363L135.214 6M135.214 6L136.911 1.24886C136.942 1.16212 137.064 1.15984 137.098 1.24536L139 6M135.214 6H139M139 6L139.5 7M137.5 12H138.935C138.974 12 139.01 11.9765 139.026 11.9401L140.312 9M140.312 9L142.414 4.1956C142.448 4.11793 142.558 4.11513 142.595 4.19096L145 9M140.312 9H145M145 9L145.486 11.9164C145.494 11.9647 145.536 12 145.585 12H146.5" stroke="black"/>
<rect x="35" y="4" width="1" height="1" fill="black"/>
<rect x="23.5" y="1.5" width="15" height="11" stroke="black"/>
<path d="M23 8.29289L27.212 4.08092L27.9191 4.78803L23.7071 9L23 8.29289Z" fill="black"/>
<path d="M35.7646 12.0575L27.4909 3.78374L26.7838 4.49085L35.0575 12.7646L35.7646 12.0575Z" fill="black"/>
<path d="M31.9258 9.28132L34.5 6.70708L35.2071 7.41419L32.6329 9.98843L31.9258 9.28132Z" fill="black"/>
<path d="M38.7131 10.9202L34.5 6.70712L33.7929 7.41423L38.006 11.6273L38.7131 10.9202Z" fill="black"/>
<path d="M67.6674 9.02935V9.06301L67.6719 9.09637C67.9636 11.253 66.8701 13.0943 65.3575 14.4617C63.8343 15.8387 61.9876 16.6399 60.9933 16.7472C60.5565 16.7943 60.046 16.5935 59.4637 16.3495L59.4636 16.3495L59.4398 16.3395L59.4398 16.3395C59.2216 16.2481 59.0829 16.1348 58.981 15.9829C58.8727 15.8214 58.7825 15.5808 58.7258 15.1983C58.6802 14.8912 58.7883 14.5536 59.0233 14.2598L59.5376 13.6169C60.2798 12.6892 60.2666 11.3674 59.506 10.4547L59.1247 9.9971C58.3486 9.06583 57.0163 8.82551 55.9638 9.42695L54.603 10.2045C54.2595 10.4008 53.8806 10.4567 53.5578 10.3536C53.1673 10.2288 52.9791 10.0993 52.8637 9.91184C52.5532 9.40723 52.4388 8.61183 52.5854 8.02586C52.8542 6.95107 53.7223 5.19264 55.0596 3.76533C56.3948 2.34026 58.1227 1.32036 60.1159 1.52669L60.1416 1.52935H60.1674C64.3095 1.52935 67.6674 4.88721 67.6674 9.02935Z" stroke="black"/>
<rect x="55.1674" y="6.02933" width="2" height="2" rx="1" fill="black"/>
<rect x="58.1674" y="4.02933" width="2" height="2" rx="1" fill="black"/>
<rect x="62.1674" y="5.02933" width="2" height="2" rx="1" fill="black"/>
<rect x="63.1674" y="9.02933" width="2" height="2" rx="1" fill="black"/>
<rect x="61.1674" y="12.0293" width="2" height="2" rx="1" fill="black"/>
<path d="M96 5V1H81V10H89" stroke="black"/>
<rect x="91" y="9" width="5" height="4" stroke="black"/>
<path d="M92 8V7.5C92 6.67157 92.6716 6 93.5 6V6C94.3284 6 95 6.67157 95 7.5V8" stroke="black"/>
<path d="M115 4H109V12H116M123 6V12H116M116 12V14M116 14H114M116 14H118" stroke="black"/>
<path d="M114 10H115.5C116.328 10 117 9.32843 117 8.5V8.5C117 7.67157 116.328 7 115.5 7V7C114.672 7 114 7.67157 114 8.5V10ZM114 10H111M118.532 6.5H118.914C119.289 6.5 119.649 6.351 119.914 6.08579L122.675 3.32514C122.883 3.11696 123 2.8346 123 2.54018V2.3809C123 1.70155 122.334 1.22185 121.69 1.43668V1.43668C121.565 1.47847 121.449 1.54483 121.349 1.63186L117.852 4.69169C117.628 4.88762 117.5 5.17067 117.5 5.4682V5.4682C117.5 6.03805 117.962 6.5 118.532 6.5Z" stroke="black"/>
<rect x="158.5" y="1.5" width="9" height="4" stroke="black"/>
<rect x="164.5" y="7.5" width="9" height="4" stroke="black"/>
<rect x="169.5" y="1.5" width="4" height="4" stroke="black"/>
<rect x="158.5" y="7.5" width="4" height="4" stroke="black"/>
<rect x="187.5" y="1.5" width="15" height="8" stroke="black"/>
<path d="M187.5 7.5H202.5" stroke="black"/>
<path d="M6.5 1L1 7V14H5V9H8V14H12V7L6.5 1Z" stroke="black"/>
</svg>
