<svg width="12" height="13" viewBox="0 0 12 13" fill="none" xmlns="http://www.w3.org/2000/svg">
<path d="M5.55878 0.416809C6.11106 0.416809 6.55878 0.864524 6.55878 1.41681L6.55878 12.4168H4.55878L4.55878 1.41681C4.55878 0.864524 5.00649 0.416809 5.55878 0.416809V0.416809Z" fill="#808080"/>
<path d="M4.95932 0.75234C5.35582 0.367886 5.98891 0.377653 6.37336 0.774154L10.4607 4.98962C10.8452 5.38612 10.8354 6.01921 10.4389 6.40367V6.40367C10.0424 6.78812 9.40934 6.77835 9.02488 6.38185L4.9375 2.16638C4.55305 1.76988 4.56282 1.13679 4.95932 0.75234V0.75234Z" fill="#808080"/>
<rect width="7.93996" height="2" rx="1" transform="matrix(-0.696115 0.71793 0.71793 0.696115 5.5271 0)" fill="#808080"/>
</svg>
